<svg xmlns="http://www.w3.org/2000/svg" width="24.126" height="19.301" viewBox="0 0 24.126 19.301">
  <path id="Icon_awesome-laptop-code" data-name="Icon awesome-laptop-code" d="M480.713,3922.65h-19.3a2.416,2.416,0,0,1-2.413-2.413v-.6a.6.6,0,0,1,.6-.6h9.018a1.2,1.2,0,0,0,.366.824,1.22,1.22,0,0,0,.869.382h2.292a1.185,1.185,0,0,0,1.234-1.206h9.14a.6.6,0,0,1,.6.6v.6A2.416,2.416,0,0,1,480.713,3922.65Zm0-4.826h-19.3v-12.666a1.812,1.812,0,0,1,1.809-1.81H478.9a1.812,1.812,0,0,1,1.81,1.81v12.665Zm-16.893-12.065v9.65H478.3v-9.65Zm9.265,7.63a.6.6,0,0,1-.427-.177l-.426-.426a.606.606,0,0,1,0-.854l1.346-1.346-1.346-1.347a.6.6,0,0,1,0-.853l.426-.427a.6.6,0,0,1,.854,0l2.2,2.2a.606.606,0,0,1,0,.854l-2.2,2.2A.6.6,0,0,1,473.086,3913.389Zm-4.046,0a.6.6,0,0,1-.426-.177l-2.2-2.2a.6.6,0,0,1,0-.854l2.2-2.2a.6.6,0,0,1,.854,0l.426.426a.605.605,0,0,1,0,.854l-1.346,1.347,1.346,1.346a.6.6,0,0,1,0,.854l-.426.426A.6.6,0,0,1,469.04,3913.389Z" transform="translate(-458.999 -3903.348)" fill="#fff"/>
</svg>
